<svg width="25" height="24" viewBox="0 0 25 24" fill="none" xmlns="http://www.w3.org/2000/svg">
<g clip-path="url(#clip0_205_2254)">
<path d="M13.2904 2.06L7.75041 7.6C7.38041 7.97 7.17041 8.48 7.17041 9.01V19C7.17041 20.1 8.07041 21 9.17041 21H18.1704C18.9704 21 19.6904 20.52 20.0104 19.79L23.2704 12.18C24.1104 10.2 22.6604 8 20.5104 8H14.8604L15.8104 3.42C15.9104 2.92 15.7604 2.41 15.4004 2.05C14.8104 1.47 13.8704 1.47 13.2904 2.06ZM3.17041 21C4.27041 21 5.17041 20.1 5.17041 19V11C5.17041 9.9 4.27041 9 3.17041 9C2.07041 9 1.17041 9.9 1.17041 11V19C1.17041 20.1 2.07041 21 3.17041 21Z" fill="#ABB7C2"/>
</g>
<defs>
<clipPath id="clip0_205_2254">
<rect width="24" height="24" fill="white" transform="translate(0.17041)"/>
</clipPath>
</defs>
</svg>
