<svg width="11" height="10" viewBox="0 0 11 10" fill="none" xmlns="http://www.w3.org/2000/svg">
<g clip-path="url(#clip0_213_1795)">
<path d="M5.8125 5.125C6.12316 5.125 6.375 4.87316 6.375 4.5625C6.375 4.25184 6.12316 4 5.8125 4C5.50184 4 5.25 4.25184 5.25 4.5625C5.25 4.87316 5.50184 5.125 5.8125 5.125Z" fill="#323232"/>
<path d="M3.1875 5.125C3.49816 5.125 3.75 4.87316 3.75 4.5625C3.75 4.25184 3.49816 4 3.1875 4C2.87684 4 2.625 4.25184 2.625 4.5625C2.625 4.87316 2.87684 5.125 3.1875 5.125Z" fill="#323232"/>
<path d="M4.49625 1.75C2.42625 1.75 0.75 3.43 0.75 5.5C0.75 7.57 2.42625 9.25 4.49625 9.25C6.57 9.25 8.25 7.57 8.25 5.5C8.25 3.43 6.57 1.75 4.49625 1.75ZM4.5 8.5C2.8425 8.5 1.5 7.1575 1.5 5.5C1.5 3.8425 2.8425 2.5 4.5 2.5C6.1575 2.5 7.5 3.8425 7.5 5.5C7.5 7.1575 6.1575 8.5 4.5 8.5ZM6.15375 6.20875C6.0225 6.12625 5.84625 6.1675 5.7675 6.29875C5.49 6.7375 5.0175 7 4.5 7C3.9825 7 3.51 6.7375 3.2325 6.295C3.15 6.16375 2.9775 6.1225 2.84625 6.205C2.715 6.2875 2.67375 6.46 2.75625 6.59125C3.13875 7.2025 3.7875 7.5625 4.5 7.5625C5.2125 7.5625 5.86125 7.19875 6.24375 6.595C6.32625 6.46375 6.285 6.29125 6.15375 6.20875Z" fill="#323232"/>
</g>
<path d="M9 0C9.05487 0 9.1075 0.0217979 9.1463 0.0605986C9.1851 0.0993992 9.2069 0.152024 9.2069 0.206897V1.7931H10.7931C10.848 1.7931 10.9006 1.8149 10.9394 1.8537C10.9782 1.8925 11 1.94513 11 2C11 2.05487 10.9782 2.1075 10.9394 2.1463C10.9006 2.1851 10.848 2.2069 10.7931 2.2069H9.2069V3.7931C9.2069 3.84798 9.1851 3.9006 9.1463 3.9394C9.1075 3.9782 9.05487 4 9 4C8.94513 4 8.8925 3.9782 8.8537 3.9394C8.8149 3.9006 8.7931 3.84798 8.7931 3.7931V2.2069H7.2069C7.15202 2.2069 7.0994 2.1851 7.0606 2.1463C7.0218 2.1075 7 2.05487 7 2C7 1.94513 7.0218 1.8925 7.0606 1.8537C7.0994 1.8149 7.15202 1.7931 7.2069 1.7931H8.7931V0.206897C8.7931 0.152024 8.8149 0.0993992 8.8537 0.0605986C8.8925 0.0217979 8.94513 0 9 0Z" fill="#323232"/>
<defs>
<clipPath id="clip0_213_1795">
<rect width="9" height="9" fill="white" transform="translate(0 1)"/>
</clipPath>
</defs>
</svg>
